<?xml version="1.0" encoding="us-ascii" standalone="no"?>
<svg xmlns="http://www.w3.org/2000/svg" xmlns:xlink="http://www.w3.org/1999/xlink" contentStyleType="text/css"
     height="713.6px" preserveAspectRatio="none" style="width:722px;height:713px;background:#FFFFFF;" version="1.1"
     viewBox="0 0 722 713" width="722.4px" zoomAndPan="magnify">
    <defs/>
    <g><!--class ConfigGame-->
        <g id="elem_ConfigGame">
            <rect codeLine="2" fill="#F1F1F1" height="306.5438" id="ConfigGame" rx="2" ry="2"
                  style="stroke:#181818;stroke-width:0.4000000000000001;" width="172.8" x="528" y="5.6"/>
            <ellipse cx="579.4" cy="18.4" fill="#ADD1B2" rx="8.8" ry="8.8"
                     style="stroke:#181818;stroke-width:0.8000000000000002;"/>
            <path
                d="M581.6125,15.1 Q581.7375,14.925 581.8875,14.8375 Q582.0375,14.75 582.2125,14.75 Q582.5125,14.75 582.7,14.9625 Q582.8875,15.1625 582.8875,15.65 L582.8875,16.8125 Q582.8875,17.3 582.7,17.5125 Q582.5125,17.725 582.2125,17.725 Q581.9375,17.725 581.775,17.5625 Q581.6125,17.4125 581.525,17 Q581.4875,16.7125 581.3375,16.5625 Q581.075,16.2625 580.5875,16.0875 Q580.1,15.9125 579.6,15.9125 Q578.9875,15.9125 578.475,16.175 Q577.975,16.4375 577.575,17.0375 Q577.1875,17.6375 577.1875,18.4625 L577.1875,19.3375 Q577.1875,20.325 577.9,20.9875 Q578.6125,21.6375 579.8875,21.6375 Q580.6375,21.6375 581.1625,21.4375 Q581.475,21.3125 581.8125,20.9625 Q582.025,20.75 582.1375,20.6875 Q582.2625,20.625 582.425,20.625 Q582.6875,20.625 582.8875,20.8375 Q583.1,21.0375 583.1,21.3125 Q583.1,21.5875 582.825,21.9125 Q582.425,22.375 581.7875,22.6375 Q580.925,23 579.8875,23 Q578.675,23 577.7125,22.5 Q576.925,22.1 576.375,21.25 Q575.825,20.3875 575.825,19.3625 L575.825,18.4375 Q575.825,17.375 576.3125,16.4625 Q576.8125,15.5375 577.6875,15.05 Q578.5625,14.55 579.55,14.55 Q580.1375,14.55 580.65,14.6875 Q581.175,14.8125 581.6125,15.1 Z "
                fill="#000000"/>
            <text fill="#000000" font-family="sans-serif" font-size="11.2" lengthAdjust="spacing" textLength="63.2"
                  x="595.8" y="23.0375">ConfigGame
            </text>
            <line style="stroke:#181818;stroke-width:0.4000000000000001;" x1="528.8" x2="700" y1="31.2" y2="31.2"/>
            <rect fill="none" height="4.8" style="stroke:#C82930;stroke-width:0.8000000000000002;" width="4.8" x="534.4"
                  y="40.6484"/>
            <text fill="#000000" font-family="sans-serif" font-size="11.2" lengthAdjust="spacing"
                  text-decoration="underline" textLength="117.6" x="544" y="46.4859">defenceLightArmor : int
            </text>
            <rect fill="none" height="4.8" style="stroke:#C82930;stroke-width:0.8000000000000002;" width="4.8" x="534.4"
                  y="55.5453"/>
            <text fill="#000000" font-family="sans-serif" font-size="11.2" lengthAdjust="spacing"
                  text-decoration="underline" textLength="124" x="544" y="61.3828">defenceHeavyArmor : int
            </text>
            <text fill="#000000" font-family="sans-serif" font-size="11.2" lengthAdjust="spacing" textLength="3.2"
                  x="544" y="76.2797">&#160;
            </text>
            <rect fill="none" height="4.8" style="stroke:#C82930;stroke-width:0.8000000000000002;" width="4.8" x="534.4"
                  y="85.3391"/>
            <text fill="#000000" font-family="sans-serif" font-size="11.2" lengthAdjust="spacing"
                  text-decoration="underline" textLength="76" x="544" y="91.1766">healthZerg : int
            </text>
            <rect fill="none" height="4.8" style="stroke:#C82930;stroke-width:0.8000000000000002;" width="4.8" x="534.4"
                  y="100.2359"/>
            <text fill="#000000" font-family="sans-serif" font-size="11.2" lengthAdjust="spacing"
                  text-decoration="underline" textLength="85.6" x="544" y="106.0734">damageZerg : int
            </text>
            <text fill="#000000" font-family="sans-serif" font-size="11.2" lengthAdjust="spacing" textLength="3.2"
                  x="544" y="120.9703">&#160;
            </text>
            <rect fill="none" height="4.8" style="stroke:#C82930;stroke-width:0.8000000000000002;" width="4.8" x="534.4"
                  y="130.0297"/>
            <text fill="#000000" font-family="sans-serif" font-size="11.2" lengthAdjust="spacing"
                  text-decoration="underline" textLength="85.6" x="544" y="135.8672">healthProtos : int
            </text>
            <rect fill="none" height="4.8" style="stroke:#C82930;stroke-width:0.8000000000000002;" width="4.8" x="534.4"
                  y="144.9266"/>
            <text fill="#000000" font-family="sans-serif" font-size="11.2" lengthAdjust="spacing"
                  text-decoration="underline" textLength="95.2" x="544" y="150.7641">damageProtos : int
            </text>
            <line style="stroke:#181818;stroke-width:0.4000000000000001;" x1="528.8" x2="700" y1="156.775"
                  y2="156.775"/>
            <ellipse cx="536.8" cy="168.6234" fill="#84BE84" rx="2.4" ry="2.4"
                     style="stroke:#038048;stroke-width:0.8000000000000002;"/>
            <text fill="#000000" font-family="sans-serif" font-size="11.2" lengthAdjust="spacing"
                  text-decoration="underline" textLength="52.8" x="544" y="172.0609">Init() : void
            </text>
            <text fill="#000000" font-family="sans-serif" font-size="11.2" lengthAdjust="spacing" textLength="3.2"
                  x="544" y="186.9578">&#160;
            </text>
            <ellipse cx="536.8" cy="198.4172" fill="#84BE84" rx="2.4" ry="2.4"
                     style="stroke:#038048;stroke-width:0.8000000000000002;"/>
            <text fill="#000000" font-family="sans-serif" font-size="11.2" lengthAdjust="spacing"
                  text-decoration="underline" textLength="145.6" x="544" y="201.8547">GetDefenceLightArmor() : int
            </text>
            <ellipse cx="536.8" cy="213.3141" fill="#84BE84" rx="2.4" ry="2.4"
                     style="stroke:#038048;stroke-width:0.8000000000000002;"/>
            <text fill="#000000" font-family="sans-serif" font-size="11.2" lengthAdjust="spacing"
                  text-decoration="underline" textLength="152" x="544" y="216.7516">GetDefenceHeavyArmor() : int
            </text>
            <text fill="#000000" font-family="sans-serif" font-size="11.2" lengthAdjust="spacing" textLength="3.2"
                  x="544" y="231.6484">&#160;
            </text>
            <ellipse cx="536.8" cy="243.1078" fill="#84BE84" rx="2.4" ry="2.4"
                     style="stroke:#038048;stroke-width:0.8000000000000002;"/>
            <text fill="#000000" font-family="sans-serif" font-size="11.2" lengthAdjust="spacing"
                  text-decoration="underline" textLength="103.2" x="544" y="246.5453">GetHealthZerg() : int
            </text>
            <ellipse cx="536.8" cy="258.0047" fill="#84BE84" rx="2.4" ry="2.4"
                     style="stroke:#038048;stroke-width:0.8000000000000002;"/>
            <text fill="#000000" font-family="sans-serif" font-size="11.2" lengthAdjust="spacing"
                  text-decoration="underline" textLength="113.6" x="544" y="261.4422">GetDamageZerg() : int
            </text>
            <text fill="#000000" font-family="sans-serif" font-size="11.2" lengthAdjust="spacing" textLength="3.2"
                  x="544" y="276.3391">&#160;
            </text>
            <ellipse cx="536.8" cy="287.7984" fill="#84BE84" rx="2.4" ry="2.4"
                     style="stroke:#038048;stroke-width:0.8000000000000002;"/>
            <text fill="#000000" font-family="sans-serif" font-size="11.2" lengthAdjust="spacing"
                  text-decoration="underline" textLength="112.8" x="544" y="291.2359">GetHealthProtos() : int
            </text>
            <ellipse cx="536.8" cy="302.6953" fill="#84BE84" rx="2.4" ry="2.4"
                     style="stroke:#038048;stroke-width:0.8000000000000002;"/>
            <text fill="#000000" font-family="sans-serif" font-size="11.2" lengthAdjust="spacing"
                  text-decoration="underline" textLength="123.2" x="544" y="306.1328">GetDamageProtos() : int
            </text>
        </g><!--class Armor-->
        <g id="elem_Armor">
            <rect codeLine="24" fill="#F1F1F1" height="127.7813" id="Armor" rx="2" ry="2"
                  style="stroke:#181818;stroke-width:0.4000000000000001;" width="193.6" x="263.2" y="94.8"/>
            <ellipse cx="341.4" cy="107.6" fill="#A9DCDF" rx="8.8" ry="8.8"
                     style="stroke:#181818;stroke-width:0.8000000000000002;"/>
            <path
                d="M343.15,109.0125 L339.8375,109.0125 L339.5,109.8375 L339.8375,109.8375 Q340.325,109.8375 340.5375,110.025 Q340.75,110.2125 340.75,110.525 Q340.75,110.825 340.5375,111.0125 Q340.325,111.2 339.8375,111.2 L338,111.2 Q337.5125,111.2 337.3125,111.0125 Q337.1,110.825 337.1,110.5125 Q337.1,110.2125 337.325,110.025 Q337.5375,109.825 338.0375,109.8375 L340.175,104.5125 L339.2875,104.5125 Q338.8,104.5125 338.5875,104.325 Q338.375,104.1375 338.375,103.825 Q338.375,103.525 338.5875,103.3375 Q338.8,103.15 339.2875,103.15 L342.225,103.15 L344.9375,109.8375 Q345.4125,109.8375 345.5625,109.95 Q345.875,110.1625 345.875,110.525 Q345.875,110.825 345.6625,111.0125 Q345.4625,111.2 344.975,111.2 L343.1375,111.2 Q342.65,111.2 342.4375,111.0125 Q342.225,110.825 342.225,110.5125 Q342.225,110.2125 342.4375,110.025 Q342.65,109.8375 343.1375,109.8375 L343.475,109.8375 L343.15,109.0125 Z M342.575,107.65 L341.4875,104.95 L340.3875,107.65 L342.575,107.65 Z "
                fill="#000000"/>
            <text fill="#000000" font-family="sans-serif" font-size="11.2" font-style="italic" lengthAdjust="spacing"
                  textLength="30.4" x="357.8" y="112.2375">Armor
            </text>
            <line style="stroke:#181818;stroke-width:0.4000000000000001;" x1="264" x2="456" y1="120.4" y2="120.4"/>
            <rect fill="none" height="4.8" style="stroke:#C82930;stroke-width:0.8000000000000002;" width="4.8" x="269.6"
                  y="129.8484"/>
            <text fill="#000000" font-family="sans-serif" font-size="11.2" lengthAdjust="spacing" textLength="65.6"
                  x="279.2" y="135.6859">name : string
            </text>
            <rect fill="none" height="4.8" style="stroke:#C82930;stroke-width:0.8000000000000002;" width="4.8" x="269.6"
                  y="144.7453"/>
            <text fill="#000000" font-family="sans-serif" font-size="11.2" lengthAdjust="spacing" textLength="62.4"
                  x="279.2" y="150.5828">defence : int
            </text>
            <line style="stroke:#181818;stroke-width:0.4000000000000001;" x1="264" x2="456" y1="156.5938"
                  y2="156.5938"/>
            <polygon fill="#FFFF44" points="272,164.4422,275.2,167.6422,272,170.8422,268.8,167.6422"
                     style="stroke:#B38D22;stroke-width:0.8000000000000002;"/>
            <text fill="#000000" font-family="sans-serif" font-size="11.2" lengthAdjust="spacing" textLength="172.8"
                  x="279.2" y="171.8797">Armor(name : string, defence : int)
            </text>
            <text fill="#000000" font-family="sans-serif" font-size="11.2" lengthAdjust="spacing" textLength="3.2"
                  x="279.2" y="186.7766">&#160;
            </text>
            <ellipse cx="272" cy="198.2359" fill="#84BE84" rx="2.4" ry="2.4"
                     style="stroke:#038048;stroke-width:0.8000000000000002;"/>
            <text fill="#000000" font-family="sans-serif" font-size="11.2" lengthAdjust="spacing" textLength="92.8"
                  x="279.2" y="201.6734">GetName() : string
            </text>
            <ellipse cx="272" cy="213.1328" fill="#84BE84" rx="2.4" ry="2.4"
                     style="stroke:#038048;stroke-width:0.8000000000000002;"/>
            <text fill="#000000" font-family="sans-serif" font-size="11.2" lengthAdjust="spacing" textLength="90.4"
                  x="279.2" y="216.5703">GetDefence() : int
            </text>
        </g><!--class LightArmor-->
        <g id="elem_LightArmor">
            <rect codeLine="36" fill="#F1F1F1" height="53.2969" id="LightArmor" rx="2" ry="2"
                  style="stroke:#181818;stroke-width:0.4000000000000001;" width="149.6" x="466" y="456.8"/>
            <ellipse cx="509.8" cy="469.6" fill="#ADD1B2" rx="8.8" ry="8.8"
                     style="stroke:#181818;stroke-width:0.8000000000000002;"/>
            <path
                d="M512.0125,466.3 Q512.1375,466.125 512.2875,466.0375 Q512.4375,465.95 512.6125,465.95 Q512.9125,465.95 513.1,466.1625 Q513.2875,466.3625 513.2875,466.85 L513.2875,468.0125 Q513.2875,468.5 513.1,468.7125 Q512.9125,468.925 512.6125,468.925 Q512.3375,468.925 512.175,468.7625 Q512.0125,468.6125 511.925,468.2 Q511.8875,467.9125 511.7375,467.7625 Q511.475,467.4625 510.9875,467.2875 Q510.5,467.1125 510,467.1125 Q509.3875,467.1125 508.875,467.375 Q508.375,467.6375 507.975,468.2375 Q507.5875,468.8375 507.5875,469.6625 L507.5875,470.5375 Q507.5875,471.525 508.3,472.1875 Q509.0125,472.8375 510.2875,472.8375 Q511.0375,472.8375 511.5625,472.6375 Q511.875,472.5125 512.2125,472.1625 Q512.425,471.95 512.5375,471.8875 Q512.6625,471.825 512.825,471.825 Q513.0875,471.825 513.2875,472.0375 Q513.5,472.2375 513.5,472.5125 Q513.5,472.7875 513.225,473.1125 Q512.825,473.575 512.1875,473.8375 Q511.325,474.2 510.2875,474.2 Q509.075,474.2 508.1125,473.7 Q507.325,473.3 506.775,472.45 Q506.225,471.5875 506.225,470.5625 L506.225,469.6375 Q506.225,468.575 506.7125,467.6625 Q507.2125,466.7375 508.0875,466.25 Q508.9625,465.75 509.95,465.75 Q510.5375,465.75 511.05,465.8875 Q511.575,466.0125 512.0125,466.3 Z "
                fill="#000000"/>
            <text fill="#000000" font-family="sans-serif" font-size="11.2" lengthAdjust="spacing" textLength="55.2"
                  x="526.2" y="474.2375">LightArmor
            </text>
            <line style="stroke:#181818;stroke-width:0.4000000000000001;" x1="466.8" x2="614.8" y1="482.4" y2="482.4"/>
            <line style="stroke:#181818;stroke-width:0.4000000000000001;" x1="466.8" x2="614.8" y1="488.8" y2="488.8"/>
            <ellipse cx="474.8" cy="500.6484" fill="#84BE84" rx="2.4" ry="2.4"
                     style="stroke:#038048;stroke-width:0.8000000000000002;"/>
            <text fill="#000000" font-family="sans-serif" font-size="11.2" lengthAdjust="spacing" textLength="128.8"
                  x="482" y="504.0859">LightArmor(name : string)
            </text>
        </g><!--class HeavyArmor-->
        <g id="elem_HeavyArmor">
            <rect codeLine="42" fill="#F1F1F1" height="53.2969" id="HeavyArmor" rx="2" ry="2"
                  style="stroke:#181818;stroke-width:0.4000000000000001;" width="156" x="282" y="456.8"/>
            <ellipse cx="325.8" cy="469.6" fill="#ADD1B2" rx="8.8" ry="8.8"
                     style="stroke:#181818;stroke-width:0.8000000000000002;"/>
            <path
                d="M328.0125,466.3 Q328.1375,466.125 328.2875,466.0375 Q328.4375,465.95 328.6125,465.95 Q328.9125,465.95 329.1,466.1625 Q329.2875,466.3625 329.2875,466.85 L329.2875,468.0125 Q329.2875,468.5 329.1,468.7125 Q328.9125,468.925 328.6125,468.925 Q328.3375,468.925 328.175,468.7625 Q328.0125,468.6125 327.925,468.2 Q327.8875,467.9125 327.7375,467.7625 Q327.475,467.4625 326.9875,467.2875 Q326.5,467.1125 326,467.1125 Q325.3875,467.1125 324.875,467.375 Q324.375,467.6375 323.975,468.2375 Q323.5875,468.8375 323.5875,469.6625 L323.5875,470.5375 Q323.5875,471.525 324.3,472.1875 Q325.0125,472.8375 326.2875,472.8375 Q327.0375,472.8375 327.5625,472.6375 Q327.875,472.5125 328.2125,472.1625 Q328.425,471.95 328.5375,471.8875 Q328.6625,471.825 328.825,471.825 Q329.0875,471.825 329.2875,472.0375 Q329.5,472.2375 329.5,472.5125 Q329.5,472.7875 329.225,473.1125 Q328.825,473.575 328.1875,473.8375 Q327.325,474.2 326.2875,474.2 Q325.075,474.2 324.1125,473.7 Q323.325,473.3 322.775,472.45 Q322.225,471.5875 322.225,470.5625 L322.225,469.6375 Q322.225,468.575 322.7125,467.6625 Q323.2125,466.7375 324.0875,466.25 Q324.9625,465.75 325.95,465.75 Q326.5375,465.75 327.05,465.8875 Q327.575,466.0125 328.0125,466.3 Z "
                fill="#000000"/>
            <text fill="#000000" font-family="sans-serif" font-size="11.2" lengthAdjust="spacing" textLength="61.6"
                  x="342.2" y="474.2375">HeavyArmor
            </text>
            <line style="stroke:#181818;stroke-width:0.4000000000000001;" x1="282.8" x2="437.2" y1="482.4" y2="482.4"/>
            <line style="stroke:#181818;stroke-width:0.4000000000000001;" x1="282.8" x2="437.2" y1="488.8" y2="488.8"/>
            <ellipse cx="290.8" cy="500.6484" fill="#84BE84" rx="2.4" ry="2.4"
                     style="stroke:#038048;stroke-width:0.8000000000000002;"/>
            <text fill="#000000" font-family="sans-serif" font-size="11.2" lengthAdjust="spacing" textLength="135.2"
                  x="298" y="504.0859">HeavyArmor(name : string)
            </text>
        </g><!--class Hero-->
        <g id="elem_Hero">
            <rect codeLine="47" fill="#F1F1F1" height="246.9563" id="Hero" rx="2" ry="2"
                  style="stroke:#181818;stroke-width:0.4000000000000001;" width="246.4" x="7.2" y="360"/>
            <ellipse cx="114.6" cy="372.8" fill="#A9DCDF" rx="8.8" ry="8.8"
                     style="stroke:#181818;stroke-width:0.8000000000000002;"/>
            <path
                d="M116.35,374.2125 L113.0375,374.2125 L112.7,375.0375 L113.0375,375.0375 Q113.525,375.0375 113.7375,375.225 Q113.95,375.4125 113.95,375.725 Q113.95,376.025 113.7375,376.2125 Q113.525,376.4 113.0375,376.4 L111.2,376.4 Q110.7125,376.4 110.5125,376.2125 Q110.3,376.025 110.3,375.7125 Q110.3,375.4125 110.525,375.225 Q110.7375,375.025 111.2375,375.0375 L113.375,369.7125 L112.4875,369.7125 Q112,369.7125 111.7875,369.525 Q111.575,369.3375 111.575,369.025 Q111.575,368.725 111.7875,368.5375 Q112,368.35 112.4875,368.35 L115.425,368.35 L118.1375,375.0375 Q118.6125,375.0375 118.7625,375.15 Q119.075,375.3625 119.075,375.725 Q119.075,376.025 118.8625,376.2125 Q118.6625,376.4 118.175,376.4 L116.3375,376.4 Q115.85,376.4 115.6375,376.2125 Q115.425,376.025 115.425,375.7125 Q115.425,375.4125 115.6375,375.225 Q115.85,375.0375 116.3375,375.0375 L116.675,375.0375 L116.35,374.2125 Z M115.775,372.85 L114.6875,370.15 L113.5875,372.85 L115.775,372.85 Z "
                fill="#000000"/>
            <text fill="#000000" font-family="sans-serif" font-size="11.2" font-style="italic" lengthAdjust="spacing"
                  textLength="24.8" x="131" y="377.4375">Hero
            </text>
            <line style="stroke:#181818;stroke-width:0.4000000000000001;" x1="8" x2="252.8" y1="385.6" y2="385.6"/>
            <rect fill="none" height="4.8" style="stroke:#C82930;stroke-width:0.8000000000000002;" width="4.8" x="13.6"
                  y="395.0484"/>
            <text fill="#000000" font-family="sans-serif" font-size="11.2" lengthAdjust="spacing" textLength="65.6"
                  x="23.2" y="400.8859">name : string
            </text>
            <rect fill="none" height="4.8" style="stroke:#C82930;stroke-width:0.8000000000000002;" width="4.8" x="13.6"
                  y="409.9453"/>
            <text fill="#000000" font-family="sans-serif" font-size="11.2" lengthAdjust="spacing" textLength="52.8"
                  x="23.2" y="415.7828">health : int
            </text>
            <rect fill="none" height="4.8" style="stroke:#C82930;stroke-width:0.8000000000000002;" width="4.8" x="13.6"
                  y="424.8422"/>
            <text fill="#000000" font-family="sans-serif" font-size="11.2" lengthAdjust="spacing" textLength="62.4"
                  x="23.2" y="430.6797">damage : int
            </text>
            <rect fill="none" height="4.8" style="stroke:#C82930;stroke-width:0.8000000000000002;" width="4.8" x="13.6"
                  y="439.7391"/>
            <text fill="#000000" font-family="sans-serif" font-size="11.2" lengthAdjust="spacing" textLength="69.6"
                  x="23.2" y="445.5766">armor : Armor
            </text>
            <line style="stroke:#181818;stroke-width:0.4000000000000001;" x1="8" x2="252.8" y1="451.5875"
                  y2="451.5875"/>
            <polygon fill="#FFFF44" points="16,459.4359,19.2,462.6359,16,465.8359,12.8,462.6359"
                     style="stroke:#B38D22;stroke-width:0.8000000000000002;"/>
            <text fill="#000000" font-family="sans-serif" font-size="11.2" lengthAdjust="spacing" textLength="225.6"
                  x="23.2" y="466.8734">Hero(name : string, health : int, damage : int)
            </text>
            <text fill="#000000" font-family="sans-serif" font-size="11.2" lengthAdjust="spacing" textLength="3.2"
                  x="23.2" y="481.7703">&#160;
            </text>
            <ellipse cx="16" cy="493.2297" fill="#84BE84" rx="2.4" ry="2.4"
                     style="stroke:#038048;stroke-width:0.8000000000000002;"/>
            <text fill="#000000" font-family="sans-serif" font-size="11.2" lengthAdjust="spacing" textLength="92.8"
                  x="23.2" y="496.6672">GetName() : string
            </text>
            <ellipse cx="16" cy="508.1266" fill="#84BE84" rx="2.4" ry="2.4"
                     style="stroke:#038048;stroke-width:0.8000000000000002;"/>
            <text fill="#000000" font-family="sans-serif" font-size="11.2" lengthAdjust="spacing" textLength="80"
                  x="23.2" y="511.5641">GetHealth() : int
            </text>
            <ellipse cx="16" cy="523.0234" fill="#84BE84" rx="2.4" ry="2.4"
                     style="stroke:#038048;stroke-width:0.8000000000000002;"/>
            <text fill="#000000" font-family="sans-serif" font-size="11.2" lengthAdjust="spacing" textLength="90.4"
                  x="23.2" y="526.4609">GetDamage() : int
            </text>
            <ellipse cx="16" cy="537.9203" fill="#84BE84" rx="2.4" ry="2.4"
                     style="stroke:#038048;stroke-width:0.8000000000000002;"/>
            <text fill="#000000" font-family="sans-serif" font-size="11.2" lengthAdjust="spacing" textLength="74.4"
                  x="23.2" y="541.3578">IsDead() : bool
            </text>
            <text fill="#000000" font-family="sans-serif" font-size="11.2" lengthAdjust="spacing" textLength="3.2"
                  x="23.2" y="556.2547">&#160;
            </text>
            <ellipse cx="16" cy="567.7141" fill="#84BE84" rx="2.4" ry="2.4"
                     style="stroke:#038048;stroke-width:0.8000000000000002;"/>
            <text fill="#000000" font-family="sans-serif" font-size="11.2" lengthAdjust="spacing" textLength="155.2"
                  x="23.2" y="571.1516">SetArmor(armor : Armor) : void
            </text>
            <text fill="#000000" font-family="sans-serif" font-size="11.2" lengthAdjust="spacing" textLength="3.2"
                  x="23.2" y="586.0484">&#160;
            </text>
            <ellipse cx="16" cy="597.5078" fill="#84BE84" rx="2.4" ry="2.4"
                     style="stroke:#038048;stroke-width:0.8000000000000002;"/>
            <text fill="#000000" font-family="sans-serif" font-size="11.2" lengthAdjust="spacing" textLength="126.4"
                  x="23.2" y="600.9453">Attack(hero : Hero) : void
            </text>
        </g><!--class Zerg-->
        <g id="elem_Zerg">
            <rect codeLine="67" fill="#F1F1F1" height="53.2969" id="Zerg" rx="2" ry="2"
                  style="stroke:#181818;stroke-width:0.4000000000000001;" width="117.6" x="547.6" y="655.2"/>
            <ellipse cx="591.4" cy="668" fill="#ADD1B2" rx="8.8" ry="8.8"
                     style="stroke:#181818;stroke-width:0.8000000000000002;"/>
            <path
                d="M593.6125,664.7 Q593.7375,664.525 593.8875,664.4375 Q594.0375,664.35 594.2125,664.35 Q594.5125,664.35 594.7,664.5625 Q594.8875,664.7625 594.8875,665.25 L594.8875,666.4125 Q594.8875,666.9 594.7,667.1125 Q594.5125,667.325 594.2125,667.325 Q593.9375,667.325 593.775,667.1625 Q593.6125,667.0125 593.525,666.6 Q593.4875,666.3125 593.3375,666.1625 Q593.075,665.8625 592.5875,665.6875 Q592.1,665.5125 591.6,665.5125 Q590.9875,665.5125 590.475,665.775 Q589.975,666.0375 589.575,666.6375 Q589.1875,667.2375 589.1875,668.0625 L589.1875,668.9375 Q589.1875,669.925 589.9,670.5875 Q590.6125,671.2375 591.8875,671.2375 Q592.6375,671.2375 593.1625,671.0375 Q593.475,670.9125 593.8125,670.5625 Q594.025,670.35 594.1375,670.2875 Q594.2625,670.225 594.425,670.225 Q594.6875,670.225 594.8875,670.4375 Q595.1,670.6375 595.1,670.9125 Q595.1,671.1875 594.825,671.5125 Q594.425,671.975 593.7875,672.2375 Q592.925,672.6 591.8875,672.6 Q590.675,672.6 589.7125,672.1 Q588.925,671.7 588.375,670.85 Q587.825,669.9875 587.825,668.9625 L587.825,668.0375 Q587.825,666.975 588.3125,666.0625 Q588.8125,665.1375 589.6875,664.65 Q590.5625,664.15 591.55,664.15 Q592.1375,664.15 592.65,664.2875 Q593.175,664.4125 593.6125,664.7 Z "
                fill="#000000"/>
            <text fill="#000000" font-family="sans-serif" font-size="11.2" lengthAdjust="spacing" textLength="23.2"
                  x="607.8" y="672.6375">Zerg
            </text>
            <line style="stroke:#181818;stroke-width:0.4000000000000001;" x1="548.4" x2="664.4" y1="680.8" y2="680.8"/>
            <line style="stroke:#181818;stroke-width:0.4000000000000001;" x1="548.4" x2="664.4" y1="687.2" y2="687.2"/>
            <ellipse cx="556.4" cy="699.0484" fill="#84BE84" rx="2.4" ry="2.4"
                     style="stroke:#038048;stroke-width:0.8000000000000002;"/>
            <text fill="#000000" font-family="sans-serif" font-size="11.2" lengthAdjust="spacing" textLength="96.8"
                  x="563.6" y="702.4859">Zerg(name : string)
            </text>
        </g><!--class Protos-->
        <g id="elem_Protos">
            <rect codeLine="73" fill="#F1F1F1" height="53.2969" id="Protos" rx="2" ry="2"
                  style="stroke:#181818;stroke-width:0.4000000000000001;" width="127.2" x="283.6" y="655.2"/>
            <ellipse cx="327.4" cy="668" fill="#ADD1B2" rx="8.8" ry="8.8"
                     style="stroke:#181818;stroke-width:0.8000000000000002;"/>
            <path
                d="M329.6125,664.7 Q329.7375,664.525 329.8875,664.4375 Q330.0375,664.35 330.2125,664.35 Q330.5125,664.35 330.7,664.5625 Q330.8875,664.7625 330.8875,665.25 L330.8875,666.4125 Q330.8875,666.9 330.7,667.1125 Q330.5125,667.325 330.2125,667.325 Q329.9375,667.325 329.775,667.1625 Q329.6125,667.0125 329.525,666.6 Q329.4875,666.3125 329.3375,666.1625 Q329.075,665.8625 328.5875,665.6875 Q328.1,665.5125 327.6,665.5125 Q326.9875,665.5125 326.475,665.775 Q325.975,666.0375 325.575,666.6375 Q325.1875,667.2375 325.1875,668.0625 L325.1875,668.9375 Q325.1875,669.925 325.9,670.5875 Q326.6125,671.2375 327.8875,671.2375 Q328.6375,671.2375 329.1625,671.0375 Q329.475,670.9125 329.8125,670.5625 Q330.025,670.35 330.1375,670.2875 Q330.2625,670.225 330.425,670.225 Q330.6875,670.225 330.8875,670.4375 Q331.1,670.6375 331.1,670.9125 Q331.1,671.1875 330.825,671.5125 Q330.425,671.975 329.7875,672.2375 Q328.925,672.6 327.8875,672.6 Q326.675,672.6 325.7125,672.1 Q324.925,671.7 324.375,670.85 Q323.825,669.9875 323.825,668.9625 L323.825,668.0375 Q323.825,666.975 324.3125,666.0625 Q324.8125,665.1375 325.6875,664.65 Q326.5625,664.15 327.55,664.15 Q328.1375,664.15 328.65,664.2875 Q329.175,664.4125 329.6125,664.7 Z "
                fill="#000000"/>
            <text fill="#000000" font-family="sans-serif" font-size="11.2" lengthAdjust="spacing" textLength="32.8"
                  x="343.8" y="672.6375">Protos
            </text>
            <line style="stroke:#181818;stroke-width:0.4000000000000001;" x1="284.4" x2="410" y1="680.8" y2="680.8"/>
            <line style="stroke:#181818;stroke-width:0.4000000000000001;" x1="284.4" x2="410" y1="687.2" y2="687.2"/>
            <ellipse cx="292.4" cy="699.0484" fill="#84BE84" rx="2.4" ry="2.4"
                     style="stroke:#038048;stroke-width:0.8000000000000002;"/>
            <text fill="#000000" font-family="sans-serif" font-size="11.2" lengthAdjust="spacing" textLength="106.4"
                  x="299.6" y="702.4859">Protos(name : string)
            </text>
        </g><!--reverse link ConfigGame to LightArmor-->
        <g id="link_ConfigGame_LightArmor">
            <path codeLine="34" d="M578.76,316.12 C566.384,370.44 553.84,425.52 546.72,456.792 " fill="none"
                  id="ConfigGame-backto-LightArmor" style="stroke:#181818;stroke-width:0.8000000000000002;"/>
            <polygon fill="#181818"
                     points="579.648,312.208,574.9447,318.5293,578.7694,316.1103,581.1884,319.935,579.648,312.208"
                     style="stroke:#181818;stroke-width:0.8000000000000002;"/>
        </g><!--reverse link Armor to LightArmor-->
        <g id="link_Armor_LightArmor">
            <path codeLine="35" d="M403.344,237.08 C443.12,308.184 499.736,409.4 526.168,456.64 " fill="none"
                  id="Armor-backto-LightArmor" style="stroke:#181818;stroke-width:0.8000000000000002;"/>
            <polygon fill="none" points="398.432,239.768,395.504,223.072,408.2,234.296,398.432,239.768"
                     style="stroke:#181818;stroke-width:0.8000000000000002;"/>
        </g><!--reverse link ConfigGame to HeavyArmor-->
        <g id="link_ConfigGame_HeavyArmor">
            <path codeLine="40"
                  d="M525.264,268.048 C501.248,297.688 475.44,329.928 452,360 C426.288,392.992 397.512,431.704 379.104,456.712 "
                  fill="none" id="ConfigGame-backto-HeavyArmor"
                  style="stroke:#181818;stroke-width:0.8000000000000002;"/>
            <polygon fill="#181818"
                     points="527.888,264.824,520.8721,268.4097,525.3725,267.934,525.8482,272.4345,527.888,264.824"
                     style="stroke:#181818;stroke-width:0.8000000000000002;"/>
        </g><!--reverse link Armor to HeavyArmor-->
        <g id="link_Armor_HeavyArmor">
            <path codeLine="41" d="M360,239.096 C360,310.08 360,409.84 360,456.64 " fill="none"
                  id="Armor-backto-HeavyArmor" style="stroke:#181818;stroke-width:0.8000000000000002;"/>
            <polygon fill="none" points="354.4,239.072,360,223.072,365.6,239.072,354.4,239.072"
                     style="stroke:#181818;stroke-width:0.8000000000000002;"/>
        </g><!--link Armor to Hero-->
        <g id="link_Armor_Hero">
            <path codeLine="46" d="M308.776,231.704 C283.76,266.92 252.864,310.416 223.848,351.256 " fill="none"
                  id="Armor-Hero" style="stroke:#181818;stroke-width:0.8000000000000002;"/>
            <polygon fill="#181818"
                     points="314.912,223.072,308.1339,227.0891,312.5958,226.3332,313.3517,230.7951,314.912,223.072"
                     style="stroke:#181818;stroke-width:0.8000000000000002;"/>
            <line style="stroke:#181818;stroke-width:0.8000000000000002;" x1="312.5958" x2="308.888" y1="226.3332"
                  y2="231.548"/>
            <polygon fill="#181818"
                     points="217.688,359.928,223.0764,357.8676,223.2469,352.1012,217.8585,354.1616,217.688,359.928"
                     style="stroke:#181818;stroke-width:0.8000000000000002;"/>
        </g><!--reverse link ConfigGame to Zerg-->
        <g id="link_ConfigGame_Zerg">
            <path codeLine="65"
                  d="M676.04,316.008 C701.368,404.272 716.944,515.016 679.2,607.2 C671.552,625.88 656.664,642.376 642.328,655.032 "
                  fill="none" id="ConfigGame-backto-Zerg" style="stroke:#181818;stroke-width:0.8000000000000002;"/>
            <polygon fill="#181818"
                     points="674.904,312.088,673.8418,319.8952,676.0209,315.9289,679.9872,318.1081,674.904,312.088"
                     style="stroke:#181818;stroke-width:0.8000000000000002;"/>
        </g><!--reverse link Hero to Zerg-->
        <g id="link_Hero_Zerg">
            <path codeLine="66"
                  d="M267.776,607.088 C267.848,607.12 267.928,607.16 268,607.2 C316.208,631.808 463.92,658.392 547.384,672.016 "
                  fill="none" id="Hero-backto-Zerg" style="stroke:#181818;stroke-width:0.8000000000000002;"/>
            <polygon fill="none" points="265.048,611.976,253.792,599.304,270.496,602.192,265.048,611.976"
                     style="stroke:#181818;stroke-width:0.8000000000000002;"/>
        </g><!--reverse link ConfigGame to Protos-->
        <g id="link_ConfigGame_Protos">
            <path codeLine="71"
                  d="M640.256,316.44 C654.728,426.984 663.776,562.912 629.6,607.2 C603.088,641.56 485.672,663.064 410.84,673.536 "
                  fill="none" id="ConfigGame-backto-Protos" style="stroke:#181818;stroke-width:0.8000000000000002;"/>
            <polygon fill="#181818"
                     points="639.688,312.184,637.4619,319.7421,640.2137,316.1493,643.8064,318.901,639.688,312.184"
                     style="stroke:#181818;stroke-width:0.8000000000000002;"/>
        </g><!--reverse link Hero to Protos-->
        <g id="link_Hero_Protos">
            <path codeLine="72" d="M265.544,607.08 C285.472,625.168 304.12,642.088 318.544,655.184 " fill="none"
                  id="Hero-backto-Protos" style="stroke:#181818;stroke-width:0.8000000000000002;"/>
            <polygon fill="none" points="261.768,611.208,253.688,596.312,269.296,602.92,261.768,611.208"
                     style="stroke:#181818;stroke-width:0.8000000000000002;"/>
        </g><!--SRC=[XLFBQiCm4BpxAmIzs4ty0oQNq40IAANGMs-AhTYYjWIo21Gt_rv9gyehst6FsXtDFcQsR6dVanSfhhm-qewH8Sd9q6kgUNad5RioKR9NNZTwhpgfI46uq0kG4wEtRmp1c8RHLZUVJDKB_sb7QuPoyu_lIchPF_eQPPFDc3uBhjFC96wILr7coFHXEfb3Mef5t3XUm4s0fp3Z8wOmw3e5pBDACe7SauHUUgregKdfz0GXh9J2QbeGa-MYDcylrry3Jm1D8zWsHcMsJrFxpM1SJK-sGVl1lI0pxVASZ2jEeAtTJno5bf771aEDX8bwonOgZEBW2YWA5P15RGKawRo2vydpPuDJShfV6rjSBnWsM1KS6fxKtmTqPPPlUQQxnnJRY65L230Fiarm2ugT-mEZbGjSf6mjtmVpQuwQmsUprvgMNsbZPovSoo4xryBwEt7hSIAu9-pCdRXTl3k1VqK5ZoCg7m0oV_IMpX_3ZF0N]-->
    </g>
</svg>